<svg xmlns="http://www.w3.org/2000/svg" xmlns:xlink="http://www.w3.org/1999/xlink" width="500" zoomAndPan="magnify" viewBox="0 0 375 374.999991" height="500" preserveAspectRatio="xMidYMid meet" version="1.0"><defs><g/><clipPath id="23138a6136"><path d="M 49 173.644531 L 337.742188 173.644531 L 337.742188 201.394531 L 49 201.394531 Z M 49 173.644531 " clip-rule="nonzero"/></clipPath></defs><g fill="#5271ff" fill-opacity="1"><g transform="translate(53.773208, 238.499984)"><g><path d="M 66.449219 2.25 C 76.648438 2.25 87.601562 0.449219 99.148438 -3 L 98.101562 -13.949219 C 89.550781 -9.300781 80.101562 -0.148438 71.851562 -0.148438 C 43.648438 -0.148438 22.5 -23.25 22.5 -53.398438 C 22.5 -86.101562 40.949219 -106.050781 69.898438 -106.050781 C 78.75 -106.050781 87.898438 -97.648438 98.398438 -91.648438 L 99.148438 -102.300781 C 87.75 -106.351562 76.5 -108.449219 66 -108.449219 C 33.300781 -108.449219 7.5 -89.398438 7.5 -53.398438 C 7.5 -17.699219 31.949219 2.25 66.449219 2.25 Z M 66.449219 2.25 "/></g></g></g><g fill="#5271ff" fill-opacity="1"><g transform="translate(158.473229, 238.499984)"><g><path d="M 145.5 -105.300781 C 146.398438 -91.648438 144.148438 -76.5 138.449219 -59.851562 L 118.949219 -2.851562 L 83.699219 -105.300781 L 68.699219 -105.300781 L 80.398438 -71.398438 L 56.851562 -2.851562 L 21.601562 -105.300781 L 6.601562 -105.300781 L 42.75 0 L 57.75 0 L 81.300781 -68.550781 L 104.851562 0 L 119.851562 0 L 156 -105.300781 Z M 145.5 -105.300781 "/></g></g></g><g clip-path="url(#23138a6136)"><path fill="#272727" d="M 49.042969 173.644531 L 337.6875 173.644531 L 337.6875 201.394531 L 49.042969 201.394531 L 49.042969 173.644531 " fill-opacity="1" fill-rule="nonzero"/></g><g fill="#5271ff" fill-opacity="1"><g transform="translate(88.023229, 191.624987)"><g><path d="M 7.902344 0.222656 C 9.550781 0.222656 11.246094 -0.222656 12.316406 -0.992188 L 12.316406 -1.871094 C 11.308594 -1.023438 9.566406 -0.527344 7.917969 -0.527344 C 4.511719 -0.527344 1.886719 -2.414062 1.886719 -5.566406 C 1.886719 -8.671875 4.511719 -10.6875 7.902344 -10.6875 C 9.421875 -10.6875 10.863281 -10.253906 11.789062 -9.566406 L 11.886719 -10.429688 C 10.863281 -11.054688 9.390625 -11.421875 7.917969 -11.421875 C 3.96875 -11.421875 1.085938 -9.023438 1.085938 -5.566406 C 1.085938 -2.078125 3.96875 0.222656 7.902344 0.222656 Z M 7.902344 0.222656 "/></g></g></g><g fill="#5271ff" fill-opacity="1"><g transform="translate(102.916096, 191.624987)"><g><path d="M 0.351562 0 L 1.390625 0 C 1.472656 -0.273438 1.601562 -0.574219 2.015625 -1.328125 L 2.976562 -3.039062 L 11.007812 -3.039062 L 11.964844 -1.328125 C 12.367188 -0.574219 12.492188 -0.273438 12.589844 0 L 13.628906 0 C 13.421875 -0.273438 13.230469 -0.574219 12.828125 -1.328125 L 8.175781 -9.902344 C 7.933594 -10.335938 7.726562 -10.765625 7.597656 -11.199219 L 6.429688 -11.199219 C 6.335938 -10.925781 6.207031 -10.621094 5.792969 -9.871094 L 1.152344 -1.328125 C 0.75 -0.574219 0.542969 -0.273438 0.351562 0 Z M 3.34375 -3.742188 L 6.0625 -8.78125 C 6.351562 -9.328125 6.640625 -9.855469 6.925781 -10.382812 L 7.023438 -10.382812 L 7.886719 -8.796875 L 10.621094 -3.742188 Z M 3.34375 -3.742188 "/></g></g></g><g fill="#5271ff" fill-opacity="1"><g transform="translate(118.768733, 191.624987)"><g><path d="M 8.796875 0.222656 C 9.664062 0.222656 10.734375 0.160156 11.390625 0 L 11.644531 -0.894531 C 11.070312 -0.75 9.839844 -0.625 8.527344 -0.625 L 2.609375 -0.625 L 2.609375 -9.871094 C 2.609375 -10.621094 2.640625 -10.925781 2.6875 -11.199219 L 1.710938 -11.199219 C 1.777344 -10.925781 1.808594 -10.621094 1.808594 -9.871094 L 1.808594 -1.328125 C 1.808594 -0.574219 1.777344 -0.046875 1.710938 0.222656 C 2.542969 0.0625 3.742188 0 4.941406 0 C 6.222656 0 7.453125 0.222656 8.796875 0.222656 Z M 8.796875 0.222656 "/></g></g></g><g fill="#5271ff" fill-opacity="1"><g transform="translate(132.845797, 191.624987)"><g><path d="M 6.382812 0 L 7.550781 0 C 7.648438 -0.289062 7.773438 -0.574219 8.175781 -1.328125 L 12.828125 -9.871094 C 13.230469 -10.621094 13.421875 -10.925781 13.628906 -11.199219 L 12.589844 -11.199219 C 12.492188 -10.925781 12.367188 -10.621094 11.964844 -9.871094 L 7.902344 -2.429688 L 7.039062 -0.832031 L 6.941406 -0.832031 L 6.078125 -2.449219 L 2.015625 -9.871094 C 1.601562 -10.621094 1.472656 -10.925781 1.390625 -11.199219 L 0.351562 -11.199219 C 0.542969 -10.925781 0.75 -10.621094 1.152344 -9.871094 L 5.808594 -1.296875 C 6.015625 -0.878906 6.222656 -0.496094 6.382812 0 Z M 6.382812 0 "/></g></g></g><g fill="#5271ff" fill-opacity="1"><g transform="translate(148.698432, 191.624987)"><g><path d="M 1.710938 0 L 2.6875 0 C 2.625 -0.273438 2.589844 -0.574219 2.589844 -1.328125 L 2.589844 -9.871094 C 2.589844 -10.621094 2.625 -10.925781 2.6875 -11.199219 L 1.710938 -11.199219 C 1.757812 -10.925781 1.792969 -10.621094 1.792969 -9.871094 L 1.792969 -1.328125 C 1.792969 -0.574219 1.757812 -0.273438 1.710938 0 Z M 1.710938 0 "/></g></g></g><g fill="#5271ff" fill-opacity="1"><g transform="translate(154.969377, 191.624987)"><g><path d="M 1.710938 0 L 2.6875 0 C 2.640625 -0.273438 2.589844 -0.574219 2.589844 -1.328125 L 2.589844 -9.902344 L 2.75 -9.902344 L 12.316406 0 L 13.070312 0 L 13.070312 -9.871094 C 13.070312 -10.621094 13.101562 -10.925781 13.164062 -11.199219 L 12.191406 -11.199219 C 12.238281 -10.925781 12.269531 -10.621094 12.269531 -9.871094 L 12.269531 -1.375 L 12.109375 -1.375 L 2.65625 -11.199219 L 1.710938 -11.199219 C 1.757812 -10.925781 1.808594 -10.621094 1.808594 -9.871094 L 1.808594 -1.328125 C 1.808594 -0.574219 1.757812 -0.273438 1.710938 0 Z M 1.710938 0 "/></g></g></g><g fill="#5271ff" fill-opacity="1"><g transform="translate(171.701799, 191.624987)"><g/></g></g><g fill="#5271ff" fill-opacity="1"><g transform="translate(178.452628, 191.624987)"><g><path d="M 4.589844 0 L 5.632812 0 L 9.390625 -9.984375 L 9.488281 -9.984375 L 13.214844 0 L 14.285156 0 C 14.382812 -0.574219 14.558594 -1.136719 14.78125 -1.695312 L 17.789062 -9.871094 C 18.0625 -10.621094 18.1875 -10.925781 18.347656 -11.199219 L 17.308594 -11.199219 C 17.277344 -10.925781 17.214844 -10.621094 16.941406 -9.871094 L 14.300781 -2.71875 C 14.109375 -2.191406 13.902344 -1.679688 13.710938 -1.152344 L 13.613281 -1.152344 L 9.855469 -11.199219 L 9.007812 -11.199219 L 5.230469 -1.152344 L 5.136719 -1.152344 C 4.925781 -1.679688 4.734375 -2.207031 4.527344 -2.71875 L 1.902344 -9.871094 C 1.632812 -10.621094 1.566406 -10.925781 1.535156 -11.199219 L 0.496094 -11.199219 C 0.65625 -10.925781 0.785156 -10.621094 1.054688 -9.871094 L 4.078125 -1.679688 C 4.289062 -1.121094 4.480469 -0.59375 4.589844 0 Z M 4.589844 0 "/></g></g></g><g fill="#5271ff" fill-opacity="1"><g transform="translate(199.152105, 191.624987)"><g><path d="M 1.710938 0 L 2.6875 0 C 2.625 -0.273438 2.589844 -0.574219 2.589844 -1.328125 L 2.589844 -9.871094 C 2.589844 -10.621094 2.625 -10.925781 2.6875 -11.199219 L 1.710938 -11.199219 C 1.757812 -10.925781 1.792969 -10.621094 1.792969 -9.871094 L 1.792969 -1.328125 C 1.792969 -0.574219 1.757812 -0.273438 1.710938 0 Z M 1.710938 0 "/></g></g></g><g fill="#5271ff" fill-opacity="1"><g transform="translate(205.423055, 191.624987)"><g><path d="M 8.796875 0.222656 C 9.664062 0.222656 10.734375 0.160156 11.390625 0 L 11.644531 -0.894531 C 11.070312 -0.75 9.839844 -0.625 8.527344 -0.625 L 2.609375 -0.625 L 2.609375 -9.871094 C 2.609375 -10.621094 2.640625 -10.925781 2.6875 -11.199219 L 1.710938 -11.199219 C 1.777344 -10.925781 1.808594 -10.621094 1.808594 -9.871094 L 1.808594 -1.328125 C 1.808594 -0.574219 1.777344 -0.046875 1.710938 0.222656 C 2.542969 0.0625 3.742188 0 4.941406 0 C 6.222656 0 7.453125 0.222656 8.796875 0.222656 Z M 8.796875 0.222656 "/></g></g></g><g fill="#5271ff" fill-opacity="1"><g transform="translate(219.500122, 191.624987)"><g><path d="M 8.796875 0.222656 C 9.664062 0.222656 10.734375 0.160156 11.390625 0 L 11.644531 -0.894531 C 11.070312 -0.75 9.839844 -0.625 8.527344 -0.625 L 2.609375 -0.625 L 2.609375 -9.871094 C 2.609375 -10.621094 2.640625 -10.925781 2.6875 -11.199219 L 1.710938 -11.199219 C 1.777344 -10.925781 1.808594 -10.621094 1.808594 -9.871094 L 1.808594 -1.328125 C 1.808594 -0.574219 1.777344 -0.046875 1.710938 0.222656 C 2.542969 0.0625 3.742188 0 4.941406 0 C 6.222656 0 7.453125 0.222656 8.796875 0.222656 Z M 8.796875 0.222656 "/></g></g></g><g fill="#5271ff" fill-opacity="1"><g transform="translate(233.577189, 191.624987)"><g><path d="M 1.710938 0 L 2.6875 0 C 2.625 -0.273438 2.589844 -0.574219 2.589844 -1.328125 L 2.589844 -9.871094 C 2.589844 -10.621094 2.625 -10.925781 2.6875 -11.199219 L 1.710938 -11.199219 C 1.757812 -10.925781 1.792969 -10.621094 1.792969 -9.871094 L 1.792969 -1.328125 C 1.792969 -0.574219 1.757812 -0.273438 1.710938 0 Z M 1.710938 0 "/></g></g></g><g fill="#5271ff" fill-opacity="1"><g transform="translate(239.848139, 191.624987)"><g><path d="M 0.351562 0 L 1.390625 0 C 1.472656 -0.273438 1.601562 -0.574219 2.015625 -1.328125 L 2.976562 -3.039062 L 11.007812 -3.039062 L 11.964844 -1.328125 C 12.367188 -0.574219 12.492188 -0.273438 12.589844 0 L 13.628906 0 C 13.421875 -0.273438 13.230469 -0.574219 12.828125 -1.328125 L 8.175781 -9.902344 C 7.933594 -10.335938 7.726562 -10.765625 7.597656 -11.199219 L 6.429688 -11.199219 C 6.335938 -10.925781 6.207031 -10.621094 5.792969 -9.871094 L 1.152344 -1.328125 C 0.75 -0.574219 0.542969 -0.273438 0.351562 0 Z M 3.34375 -3.742188 L 6.0625 -8.78125 C 6.351562 -9.328125 6.640625 -9.855469 6.925781 -10.382812 L 7.023438 -10.382812 L 7.886719 -8.796875 L 10.621094 -3.742188 Z M 3.34375 -3.742188 "/></g></g></g><g fill="#5271ff" fill-opacity="1"><g transform="translate(255.70078, 191.624987)"><g><path d="M 1.710938 0 L 2.6875 0 C 2.625 -0.273438 2.589844 -0.574219 2.589844 -1.328125 L 2.589844 -9.742188 L 2.671875 -9.742188 L 8.125 0 L 8.847656 0 L 14.269531 -9.742188 L 14.382812 -9.742188 L 14.382812 -1.328125 C 14.382812 -0.574219 14.351562 -0.273438 14.285156 0 L 15.277344 0 C 15.214844 -0.273438 15.179688 -0.574219 15.179688 -1.328125 L 15.179688 -9.871094 C 15.179688 -10.621094 15.214844 -10.925781 15.277344 -11.199219 L 14.191406 -11.199219 L 10.335938 -4.289062 C 9.742188 -3.230469 9.152344 -2.160156 8.558594 -1.085938 L 8.414062 -1.085938 L 6.65625 -4.289062 L 2.816406 -11.199219 L 1.710938 -11.199219 C 1.757812 -10.925781 1.792969 -10.621094 1.792969 -9.871094 L 1.792969 -1.328125 C 1.792969 -0.574219 1.757812 -0.273438 1.710938 0 Z M 1.710938 0 "/></g></g></g><g fill="#5271ff" fill-opacity="1"><g transform="translate(274.5447, 191.624987)"><g><path d="M 6.398438 0.222656 C 9.488281 0.222656 11.503906 -1.085938 11.503906 -3.007812 C 11.503906 -7.261719 1.953125 -5.023438 1.953125 -8.429688 C 1.953125 -9.855469 3.984375 -10.703125 6.128906 -10.6875 C 7.789062 -10.6875 9.488281 -10.253906 10.527344 -9.664062 L 10.527344 -10.496094 C 9.4375 -11.007812 7.808594 -11.421875 6.128906 -11.421875 C 3.472656 -11.421875 1.136719 -10.300781 1.136719 -8.398438 C 1.136719 -4.175781 10.703125 -6.429688 10.703125 -2.960938 C 10.703125 -1.472656 8.941406 -0.511719 6.429688 -0.511719 C 4.589844 -0.511719 2.65625 -0.929688 0.910156 -1.839844 L 0.863281 -0.992188 C 2.574219 -0.191406 4.558594 0.222656 6.398438 0.222656 Z M 6.398438 0.222656 "/></g></g></g><path stroke-linecap="butt" transform="matrix(1.498287, 0, 0, 1.5, 48.991936, 187.499988)" fill="none" stroke-linejoin="miter" d="M 0.00016807 0.00000820833 L 20.523607 0.00000820833 " stroke="#ece6db" stroke-width="1" stroke-opacity="1" stroke-miterlimit="4"/><path stroke-linecap="butt" transform="matrix(1.498287, 0, 0, 1.5, 296.491919, 187.499988)" fill="none" stroke-linejoin="miter" d="M 0.000178917 0.00000820833 L 20.523617 0.00000820833 " stroke="#ece6db" stroke-width="1" stroke-opacity="1" stroke-miterlimit="4"/></svg>